<svg xmlns="http://www.w3.org/2000/svg" xmlns:xlink="http://www.w3.org/1999/xlink" style="margin:auto;background:rgba(241, 242, 243, 0);display:block;z-index:1;position:relative" width="1280" height="550" preserveAspectRatio="xMidYMid" viewBox="0 0 1280 550">
<g transform="translate(640,275) scale(1,1) translate(-640,-275)"><path id="path0" d="M 1025.1872010876623 438.018730551078
c 0 35.064419391512104 -8.579591978774237 10.07169493160454 -18.651286910378776 10.07169493160454
S 987.8846272669047 473.0831499425901 987.8846272669047 438.018730551078
s 8.579591978774237 -10.07169493160454 18.651286910378776 -10.07169493160454
S 1025.1872010876623 402.9543111595659 1025.1872010876623 438.018730551078
z" fill="none" stroke="none"></path>
<circle cx="0" cy="0" r="2.5934758963420315" fill="#fff">
  <animateMotion begin="-6.797762713514112s" dur="10s" repeatCount="indefinite">
    <mpath xlink:href="#path0"></mpath>
  </animateMotion>
</circle><path id="path1" d="M 966.204156376658 12.822654623291315
c 0 19.687269788448926 -4.817097926960907 5.6548540881715 -10.471952015132405 5.6548540881715
S 945.2602523463933 32.50992441174024 945.2602523463933 12.822654623291315
s 4.817097926960907 -5.6548540881715 10.471952015132405 -5.6548540881715
S 966.204156376658 -6.864615165157611 966.204156376658 12.822654623291315
z" fill="none" stroke="none"></path>
<circle cx="0" cy="0" r="1.7054688282067294" fill="#fff">
  <animateMotion begin="-7.795323719827712s" dur="10s" repeatCount="indefinite">
    <mpath xlink:href="#path1"></mpath>
  </animateMotion>
</circle><path id="path2" d="M 180.52988672242603 5.4015089712188304
c 0 35.094286792200066 -8.586899959793632 10.0802738658447 -18.667173825638333 10.0802738658447
S 143.19553907114934 40.4957957634189 143.19553907114934 5.4015089712188304
s 8.586899959793632 -10.0802738658447 18.667173825638333 -10.0802738658447
S 180.52988672242603 -29.692777820981235 180.52988672242603 5.4015089712188304
z" fill="none" stroke="none"></path>
<circle cx="0" cy="0" r="1.8721956523640124" fill="#fff">
  <animateMotion begin="-9.82516032743401s" dur="10s" repeatCount="indefinite">
    <mpath xlink:href="#path2"></mpath>
  </animateMotion>
</circle><path id="path3" d="M 385.707457218895 153.61186402824745
c 0 24.13839837366354 -5.906203857385759 6.933369745626762 -12.839573603012521 6.933369745626762
S 360.02831001286995 177.750262401911 360.02831001286995 153.61186402824745
s 5.906203857385759 -6.933369745626762 12.839573603012521 -6.933369745626762
S 385.707457218895 129.47346565458392 385.707457218895 153.61186402824745
z" fill="none" stroke="none"></path>
<circle cx="0" cy="0" r="1.9775365510930092" fill="#fff">
  <animateMotion begin="-3.5631231511103456s" dur="10s" repeatCount="indefinite">
    <mpath xlink:href="#path3"></mpath>
  </animateMotion>
</circle><path id="path4" d="M 722.2812723197688 311.29921252741343
c 0 30.974174966595463 -7.5787874918265485 8.89683749040508 -16.47562498223163 8.89683749040508
S 689.3300223553057 342.2733874940089 689.3300223553057 311.29921252741343
s 7.5787874918265485 -8.89683749040508 16.47562498223163 -8.89683749040508
S 722.2812723197688 280.325037560818 722.2812723197688 311.29921252741343
z" fill="none" stroke="none"></path>
<circle cx="0" cy="0" r="2.1059013211523507" fill="#fff">
  <animateMotion begin="-3.848901385114334s" dur="10s" repeatCount="indefinite">
    <mpath xlink:href="#path4"></mpath>
  </animateMotion>
</circle><path id="path5" d="M 483.36215187684894 543.8261882924636
c 0 30.143795662087825 -7.375609576893829 8.658324285918845 -16.033933862812674 8.658324285918845
S 451.2942841512236 573.9699839545515 451.2942841512236 543.8261882924636
s 7.375609576893829 -8.658324285918845 16.033933862812674 -8.658324285918845
S 483.36215187684894 513.6823926303757 483.36215187684894 543.8261882924636
z" fill="none" stroke="none"></path>
<circle cx="0" cy="0" r="1.5460103610579645" fill="#fff">
  <animateMotion begin="-1.7195290918235018s" dur="10s" repeatCount="indefinite">
    <mpath xlink:href="#path5"></mpath>
  </animateMotion>
</circle><path id="path6" d="M 598.934503845569 24.684938289137158
c 0 31.37822924270796 -7.677651835981734 9.012895633543776 -16.69054746952551 9.012895633543776
S 565.5534089065179 56.06316753184512 565.5534089065179 24.684938289137158
s 7.677651835981734 -9.012895633543776 16.69054746952551 -9.012895633543776
S 598.934503845569 -6.693290953570802 598.934503845569 24.684938289137158
z" fill="none" stroke="none"></path>
<circle cx="0" cy="0" r="1.7841309677783543" fill="#fff">
  <animateMotion begin="-8.777911208577752s" dur="10s" repeatCount="indefinite">
    <mpath xlink:href="#path6"></mpath>
  </animateMotion>
</circle><path id="path7" d="M 539.7263267525451 26.285188012314602
c 0 23.56006103618493 -5.764695785449503 6.767251574223331 -12.531947359672834 6.767251574223331
S 514.6624320331995 49.84524904849953 514.6624320331995 26.285188012314602
s 5.764695785449503 -6.767251574223331 12.531947359672834 -6.767251574223331
S 539.7263267525451 2.7251269761296726 539.7263267525451 26.285188012314602
z" fill="none" stroke="none"></path>
<circle cx="0" cy="0" r="2.7265636669358213" fill="#fff">
  <animateMotion begin="-1.4117291867882575s" dur="10s" repeatCount="indefinite">
    <mpath xlink:href="#path7"></mpath>
  </animateMotion>
</circle><path id="path8" d="M 128.2532920490014 246.48093149646206
c 0 24.828204025403345 -6.074986091322094 7.131505411552024 -13.206491502874119 7.131505411552024
S 101.84030904325317 271.3091355218654 101.84030904325317 246.48093149646206
s 6.074986091322094 -7.131505411552024 13.206491502874119 -7.131505411552024
S 128.2532920490014 221.6527274710587 128.2532920490014 246.48093149646206
z" fill="none" stroke="none"></path>
<circle cx="0" cy="0" r="2.9663707744585865" fill="#fff">
  <animateMotion begin="-2.6597501338852814s" dur="10s" repeatCount="indefinite">
    <mpath xlink:href="#path8"></mpath>
  </animateMotion>
</circle><path id="path9" d="M 714.7307408778129 81.15719594754542
c 0 20.651283532993265 -5.052973630413245 5.93175165309381 -10.984725283507055 5.93175165309381
S 692.7612903107988 101.80847948053868 692.7612903107988 81.15719594754542
s 5.052973630413245 -5.93175165309381 10.984725283507055 -5.93175165309381
S 714.7307408778129 60.50591241455216 714.7307408778129 81.15719594754542
z" fill="none" stroke="none"></path>
<circle cx="0" cy="0" r="2.682447113438302" fill="#fff">
  <animateMotion begin="-3.426637647640718s" dur="10s" repeatCount="indefinite">
    <mpath xlink:href="#path9"></mpath>
  </animateMotion>
</circle><path id="path10" d="M 960.7670856289351 330.75003068563484
c 0 37.25199205628807 -9.11484912015559 10.700040271487 -19.814889391642588 10.700040271487
S 921.1373068456498 368.00202274192293 921.1373068456498 330.75003068563484
s 9.11484912015559 -10.700040271487 19.814889391642588 -10.700040271487
S 960.7670856289351 293.49803862934675 960.7670856289351 330.75003068563484
z" fill="none" stroke="none"></path>
<circle cx="0" cy="0" r="2.481359750506228" fill="#fff">
  <animateMotion begin="-9.714419687874718s" dur="10s" repeatCount="indefinite">
    <mpath xlink:href="#path10"></mpath>
  </animateMotion>
</circle><path id="path11" d="M 500.3697075456264 445.53902827065735
c 0 36.28314388986848 -8.877790526244414 10.421754096026053 -19.299544622270467 10.421754096026053
S 461.7706183010855 481.82217216052584 461.7706183010855 445.53902827065735
s 8.877790526244414 -10.421754096026053 19.299544622270467 -10.421754096026053
S 500.3697075456264 409.25588438078887 500.3697075456264 445.53902827065735
z" fill="none" stroke="none"></path>
<circle cx="0" cy="0" r="2.444901588254704" fill="#fff">
  <animateMotion begin="-4.387571515157296s" dur="10s" repeatCount="indefinite">
    <mpath xlink:href="#path11"></mpath>
  </animateMotion>
</circle></g>
</svg>